<svg width="121" height="120" viewBox="0 0 121 120" fill="none" xmlns="http://www.w3.org/2000/svg">
<rect x="0.5" width="120" height="120" rx="60" fill="#EFF4ED"/>
<path d="M96.4298 50.8849V41.8849C96.4311 41.5098 96.3584 41.1381 96.2158 40.7912C96.0731 40.4443 95.8634 40.1289 95.5986 39.8632C95.3338 39.5975 95.0192 39.3866 94.6728 39.2428C94.3263 39.0989 93.9549 39.0249 93.5798 39.0249H84.9798C84.9798 39.6376 84.7364 40.2251 84.3032 40.6583C83.87 41.0915 83.2825 41.335 82.6698 41.335C82.0754 41.3195 81.5101 41.0744 81.0925 40.6512C80.6749 40.228 80.4374 39.6595 80.4298 39.0649H36.6698C35.9113 39.0649 35.1838 39.3662 34.6475 39.9026C34.1111 40.4389 33.8098 41.1664 33.8098 41.9249V46.2149H71.1698C71.1698 46.8276 71.4132 47.4151 71.8464 47.8483C72.2796 48.2815 72.8672 48.5249 73.4798 48.5249C74.0907 48.5223 74.6757 48.2778 75.1068 47.8448C75.5378 47.4119 75.7798 46.8258 75.7798 46.2149H84.4298C85.1849 46.2175 85.9083 46.5187 86.4422 47.0526C86.9761 47.5865 87.2772 48.3099 87.2798 49.0649V58.0649C85.8158 58.0649 84.4118 58.6465 83.3766 59.6817C82.3414 60.7169 81.7598 62.121 81.7598 63.585C81.7598 65.0499 82.3411 66.4549 83.376 67.4917C84.4109 68.5285 85.8149 69.1123 87.2798 69.1149V73.7749H93.6398C94.0128 73.7684 94.3808 73.6885 94.7229 73.5397C95.065 73.391 95.3744 73.1763 95.6335 72.9079C95.8926 72.6395 96.0963 72.3228 96.2329 71.9756C96.3695 71.6285 96.4364 71.2579 96.4298 70.8849V61.8849C94.9658 61.8849 93.5618 61.3034 92.5266 60.2682C91.4914 59.233 90.9098 57.8289 90.9098 56.3649C90.9204 54.9079 91.5066 53.5141 92.5407 52.4875C93.5747 51.461 94.9727 50.8849 96.4298 50.8849Z" fill="white" stroke="#212529" stroke-width="2" stroke-miterlimit="10" stroke-linecap="round"/>
<path d="M87.2398 58.0248V49.0248C87.227 48.2836 86.9268 47.5763 86.4026 47.0521C85.8784 46.5279 85.1711 46.2277 84.4298 46.2148H75.8198C75.8198 46.8258 75.5778 47.4119 75.1468 47.8448C74.7157 48.2777 74.1307 48.5222 73.5198 48.5248C72.9072 48.5248 72.3196 48.2815 71.8864 47.8483C71.4532 47.4151 71.2098 46.8275 71.2098 46.2148H27.4298C26.673 46.2148 25.9471 46.5148 25.411 47.049C24.875 47.5832 24.5725 48.3081 24.5698 49.0649V58.0649C26.0338 58.0649 27.4379 58.6464 28.4731 59.6816C29.5083 60.7168 30.0898 62.1209 30.0898 63.5849C30.0898 65.0498 29.5086 66.4548 28.4737 67.4916C27.4387 68.5284 26.0347 69.1122 24.5698 69.1149V78.1149C24.5698 78.4904 24.6438 78.8624 24.7875 79.2094C24.9313 79.5563 25.1419 79.8716 25.4075 80.1372C25.6731 80.4028 25.9884 80.6134 26.3354 80.7571C26.6823 80.9009 27.0542 80.9749 27.4298 80.9749H71.1398C71.1385 80.6711 71.1973 80.3702 71.313 80.0893C71.4286 79.8084 71.5987 79.5533 71.8135 79.3385C72.0282 79.1237 72.2834 78.9536 72.5643 78.838C72.8451 78.7224 73.1461 78.6635 73.4498 78.6649C73.7527 78.6649 74.0526 78.7247 74.3323 78.8409C74.612 78.9571 74.866 79.1274 75.0797 79.342C75.2934 79.5567 75.4626 79.8114 75.5776 80.0916C75.6926 80.3718 75.7511 80.672 75.7498 80.9749H84.4298C85.1866 80.9722 85.9115 80.6697 86.4457 80.1337C86.9799 79.5976 87.2798 78.8717 87.2798 78.1149V69.1149C85.8149 69.1122 84.4109 68.5284 83.376 67.4916C82.3411 66.4548 81.7598 65.0498 81.7598 63.5849C81.7546 62.86 81.8921 62.1412 82.1647 61.4694C82.4372 60.7977 82.8394 60.1862 83.3483 59.6699C83.8571 59.1536 84.4627 58.7426 85.1304 58.4603C85.7982 58.1781 86.5149 58.0301 87.2398 58.0248Z" fill="white" stroke="#212529" stroke-width="2" stroke-miterlimit="10" stroke-linecap="round"/>
<path d="M34.1198 63.6251C34.118 63.531 34.136 63.4375 34.1728 63.3508C34.2095 63.2642 34.2641 63.1862 34.333 63.1221C34.4018 63.0579 34.4835 63.009 34.5725 62.9785C34.6616 62.948 34.756 62.9366 34.8498 62.9451H38.2198C38.314 62.9367 38.4089 62.9481 38.4985 62.9785C38.588 63.009 38.6702 63.0577 38.7399 63.1217C38.8095 63.1857 38.8651 63.2635 38.9029 63.3502C38.9408 63.4368 38.9601 63.5305 38.9598 63.6251C38.9615 63.7205 38.9432 63.8152 38.906 63.9031C38.8687 63.991 38.8134 64.07 38.7436 64.1351C38.6738 64.2002 38.5911 64.2498 38.5009 64.2808C38.4106 64.3119 38.3148 64.3235 38.2198 64.3151H34.8498C34.7552 64.3236 34.6598 64.312 34.5701 64.2809C34.4803 64.2498 34.3982 64.2 34.3292 64.1347C34.2601 64.0695 34.2057 63.9903 34.1696 63.9024C34.1335 63.8146 34.1165 63.72 34.1198 63.6251Z" fill="#212529"/>
<path d="M40.6299 66.3049C40.4999 66.0726 40.4311 65.8111 40.4299 65.5449C40.4221 65.4501 40.4353 65.3548 40.4684 65.2657C40.5015 65.1766 40.5537 65.0958 40.6214 65.0291C40.6891 64.9623 40.7706 64.9112 40.8602 64.8794C40.9498 64.8476 41.0453 64.8358 41.1399 64.8449C41.2961 64.8436 41.4484 64.8939 41.5731 64.9879C41.6978 65.0819 41.7881 65.2144 41.8299 65.3649C42.0024 65.7843 42.306 66.1366 42.6953 66.3692C43.0847 66.6017 43.5388 66.7019 43.9899 66.6549C45.2199 66.6549 46.0499 65.9549 46.0599 64.9749C46.0599 63.8149 45.2299 63.1649 43.8699 63.1649H43.1999C43.1158 63.1735 43.0309 63.1641 42.9508 63.137C42.8707 63.11 42.7973 63.066 42.7357 63.0082C42.6741 62.9504 42.6256 62.88 42.5935 62.8018C42.5615 62.7236 42.5466 62.6394 42.5499 62.5549C42.5466 62.4704 42.5615 62.3862 42.5935 62.308C42.6256 62.2298 42.6741 62.1594 42.7357 62.1016C42.7973 62.0437 42.8707 61.9998 42.9508 61.9727C43.0309 61.9457 43.1158 61.9362 43.1999 61.9449H43.8299C44.0672 61.9741 44.3079 61.954 44.5371 61.8859C44.7663 61.8179 44.9791 61.7034 45.162 61.5495C45.345 61.3956 45.4943 61.2057 45.6006 60.9915C45.7069 60.7774 45.7679 60.5437 45.7799 60.3049C45.7799 59.3649 45.1699 58.7349 43.9699 58.7349C43.5402 58.6856 43.1066 58.786 42.7422 59.0192C42.3779 59.2524 42.1051 59.604 41.9699 60.0149C41.7999 60.4149 41.6299 60.5649 41.2599 60.5649C41.1688 60.5759 41.0764 60.5663 40.9896 60.5366C40.9027 60.507 40.8237 60.4582 40.7584 60.3938C40.693 60.3294 40.643 60.2511 40.6121 60.1648C40.5812 60.0784 40.5702 59.9862 40.5799 59.8949C40.5785 59.6265 40.6437 59.3619 40.7699 59.1249C41.0822 58.5756 41.544 58.1261 42.1016 57.8287C42.6592 57.5313 43.2897 57.3983 43.9199 57.4449C45.9899 57.4449 47.2599 58.5749 47.2599 60.0849C47.252 60.6735 47.0307 61.2392 46.6371 61.677C46.2435 62.1147 45.7044 62.3947 45.1199 62.4649C45.4458 62.4595 45.7695 62.5193 46.0721 62.6407C46.3746 62.7621 46.6499 62.9426 46.8818 63.1717C47.1137 63.4008 47.2975 63.6738 47.4226 63.9749C47.5476 64.2759 47.6113 64.5989 47.6099 64.9249C47.6099 66.7049 46.0499 67.9249 43.9399 67.9249C43.293 67.9814 42.643 67.8604 42.0597 67.575C41.4765 67.2895 40.9821 66.8504 40.6299 66.3049Z" fill="#212529"/>
<path d="M49.4298 66.075C49.3284 65.8593 49.2771 65.6234 49.2798 65.385C49.272 65.2929 49.2846 65.2001 49.3167 65.1134C49.3488 65.0267 49.3995 64.9481 49.4654 64.8832C49.5312 64.8183 49.6106 64.7687 49.6977 64.7379C49.7849 64.7071 49.8778 64.6959 49.9698 64.705C50.1272 64.6963 50.2829 64.7409 50.4117 64.8316C50.5406 64.9224 50.635 65.0539 50.6798 65.205C50.8258 65.6365 51.1093 66.0081 51.4869 66.2628C51.8644 66.5175 52.3151 66.6412 52.7698 66.615C53.0574 66.6264 53.3442 66.5779 53.612 66.4727C53.8799 66.3676 54.123 66.2079 54.326 66.004C54.529 65.8 54.6875 65.5562 54.7915 65.2879C54.8954 65.0195 54.9425 64.7325 54.9298 64.445C54.9409 64.1627 54.8938 63.8811 54.7915 63.6178C54.6891 63.3545 54.5337 63.115 54.3349 62.9143C54.136 62.7136 53.8981 62.5559 53.6357 62.4511C53.3733 62.3463 53.0922 62.2966 52.8098 62.305C52.5023 62.2995 52.1969 62.356 51.9116 62.4711C51.6264 62.5862 51.3674 62.7576 51.1498 62.975C50.7098 63.425 50.5698 63.505 50.1498 63.505C50.0465 63.5085 49.9436 63.4898 49.8482 63.45C49.7527 63.4102 49.667 63.3502 49.5968 63.2743C49.5266 63.1984 49.4735 63.1083 49.4413 63.01C49.409 62.9118 49.3983 62.8078 49.4098 62.705V62.565L49.7498 58.665C49.8198 57.895 50.1798 57.595 50.9598 57.595H55.2698C55.36 57.5862 55.4511 57.5971 55.5367 57.6267C55.6224 57.6564 55.7007 57.7041 55.7662 57.7668C55.8317 57.8295 55.8829 57.9055 55.9163 57.9898C55.9497 58.074 55.9646 58.1645 55.9598 58.255C55.9644 58.3459 55.9495 58.4367 55.9161 58.5214C55.8828 58.6061 55.8318 58.6828 55.7665 58.7462C55.7012 58.8096 55.6231 58.8583 55.5374 58.8892C55.4518 58.92 55.3606 58.9322 55.2698 58.925H51.1098L50.8198 62.075C51.0912 61.737 51.4402 61.4695 51.8372 61.2954C52.2342 61.1212 52.6673 61.0457 53.0998 61.075C53.542 61.0553 53.9834 61.1276 54.3962 61.2872C54.809 61.4468 55.1842 61.6903 55.4981 62.0023C55.812 62.3144 56.0578 62.6881 56.2199 63.0999C56.382 63.5118 56.4569 63.9528 56.4398 64.395C56.4509 64.8784 56.3607 65.3587 56.1753 65.8052C55.9898 66.2517 55.7131 66.6545 55.3628 66.9878C55.0126 67.3211 54.5965 67.5776 54.1414 67.7407C53.6863 67.9038 53.2021 67.97 52.7198 67.935C52.0515 67.9687 51.3874 67.8117 50.8049 67.4824C50.2224 67.1531 49.7455 66.665 49.4298 66.075Z" fill="#212529"/>
<path d="M57.4299 60.105C57.4299 58.475 58.2399 57.485 59.5299 57.485C60.8199 57.485 61.6199 58.485 61.6199 60.105C61.6199 61.725 60.8299 62.735 59.5299 62.735C58.2299 62.735 57.4299 61.735 57.4299 60.105ZM60.4299 60.105C60.4299 58.985 60.0799 58.405 59.5199 58.405C58.9599 58.405 58.5999 58.995 58.5999 60.105C58.5999 61.215 58.9399 61.8251 59.5199 61.8251C60.0999 61.8251 60.4299 61.225 60.4299 60.105ZM59.0899 67.3951C59.089 67.2496 59.1385 67.1082 59.2299 66.995L62.4199 62.3851L65.5599 57.8151C65.613 57.7102 65.6947 57.6226 65.7956 57.5624C65.8965 57.5022 66.0125 57.4719 66.1299 57.475C66.1956 57.4723 66.2612 57.4827 66.3229 57.5054C66.3845 57.528 66.4412 57.5626 66.4895 57.6072C66.5378 57.6518 66.5768 57.7055 66.6043 57.7652C66.6319 57.8249 66.6474 57.8894 66.6499 57.9551C66.6536 58.0947 66.6114 58.2316 66.5299 58.345L63.4299 62.8351L60.1899 67.535C60.0099 67.795 59.8799 67.875 59.6499 67.875C59.5821 67.8805 59.5139 67.8723 59.4493 67.851C59.3847 67.8297 59.325 67.7956 59.2738 67.7509C59.2225 67.7062 59.1808 67.6517 59.1509 67.5906C59.121 67.5294 59.1037 67.463 59.0999 67.3951H59.0899ZM64.0899 65.225C64.0899 63.595 64.8999 62.615 66.1899 62.615C67.4799 62.615 68.2799 63.615 68.2799 65.225C68.2799 66.835 67.4899 67.865 66.1899 67.865C64.8899 67.865 64.1499 66.855 64.1499 65.225H64.0899ZM67.0899 65.225C67.0899 64.115 66.7399 63.525 66.1699 63.525C65.5999 63.525 65.2499 64.115 65.2499 65.225C65.2499 66.335 65.5999 66.9451 66.1699 66.9451C66.7399 66.9451 67.1699 66.355 67.1699 65.225H67.0899Z" fill="#212529"/>
<path d="M73 53L73 75" stroke="#212529" stroke-width="2" stroke-miterlimit="10" stroke-linecap="round" stroke-dasharray="1 5.01"/>
</svg>
