<svg width="40" height="40" viewBox="0 0 40 40" fill="none" xmlns="http://www.w3.org/2000/svg">
<path d="M19.164 5H20.8389C21.1539 5 21.4561 5.12515 21.6788 5.34792C21.9016 5.57069 22.0268 5.87283 22.0268 6.18787V7.73857H17.9761V6.18787C17.9761 5.87283 18.1012 5.57069 18.324 5.34792C18.5468 5.12515 18.8489 5 19.164 5Z" stroke="#212529" stroke-width="1.5" stroke-miterlimit="10" stroke-linecap="round"/>
<path d="M25.9384 17.2465H26.003V16.0288C26.0016 15.2952 25.8153 14.5739 25.4612 13.9314L22.0268 7.73853H17.9761L14.5467 13.9314C14.189 14.5726 14.0008 15.2945 14 16.0288V17.2465H14.0646C14.3652 17.2465 14.6534 17.3659 14.8659 17.5784C15.0784 17.7909 15.1978 18.0791 15.1978 18.3797V18.5039C15.1978 18.8045 15.0784 19.0927 14.8659 19.3052C14.6534 19.5177 14.3652 19.6371 14.0646 19.6371H14V22.1222H14.0646C14.3652 22.1222 14.6534 22.2416 14.8659 22.4541C15.0784 22.6666 15.1978 22.9549 15.1978 23.2554V23.3797C15.1978 23.6802 15.0784 23.9685 14.8659 24.181C14.6534 24.3935 14.3652 24.5129 14.0646 24.5129H14V26.998H14.0646C14.3643 26.998 14.6518 27.1167 14.8642 27.3281C15.0765 27.5396 15.1965 27.8265 15.1978 28.1262V28.2505C15.1978 28.551 15.0784 28.8392 14.8659 29.0518C14.6534 29.2643 14.3652 29.3837 14.0646 29.3837H14V32.5149C14 33.1739 14.2618 33.806 14.7279 34.2721C15.1939 34.7381 15.826 35 16.4851 35H23.5179C24.177 35 24.8091 34.7381 25.2751 34.2721C25.7412 33.806 26.003 33.1739 26.003 32.5149V29.3837H25.9384C25.6378 29.3837 25.3496 29.2643 25.1371 29.0518C24.9246 28.8392 24.8052 28.551 24.8052 28.2505V28.1262C24.8065 27.8265 24.9265 27.5396 25.1388 27.3281C25.3512 27.1167 25.6387 26.998 25.9384 26.998H26.003V24.5129H25.9384C25.6378 24.5129 25.3496 24.3935 25.1371 24.181C24.9246 23.9685 24.8052 23.6802 24.8052 23.3797V23.2554C24.8052 22.9549 24.9246 22.6666 25.1371 22.4541C25.3496 22.2416 25.6378 22.1222 25.9384 22.1222H26.003V19.6371H25.9384C25.6378 19.6371 25.3496 19.5177 25.1371 19.3052C24.9246 19.0927 24.8052 18.8045 24.8052 18.5039V18.3797C24.8052 18.0791 24.9246 17.7909 25.1371 17.5784C25.3496 17.3659 25.6378 17.2465 25.9384 17.2465Z" stroke="#212529" stroke-width="1.5" stroke-miterlimit="10" stroke-linecap="round"/>
<path d="M16.7676 32.887C16.7676 34.0355 17.2941 34.9652 17.9511 34.9652H21.3013C21.9583 34.9652 22.4895 34.0355 22.4895 32.887" stroke="#212529" stroke-width="1.5" stroke-miterlimit="10" stroke-linecap="round"/>
<path d="M24.1342 28.0892H18.2539" stroke="#212529" stroke-width="1.5" stroke-miterlimit="10" stroke-linecap="round"/>
<path d="M24.1342 18.3743H18.2539" stroke="#212529" stroke-width="1.5" stroke-miterlimit="10" stroke-linecap="round"/>
<path d="M24.1346 23.2317H15.123" stroke="#212529" stroke-width="1.5" stroke-miterlimit="10" stroke-linecap="round"/>
</svg>
