<svg width="121" height="120" viewBox="0 0 121 120" fill="none" xmlns="http://www.w3.org/2000/svg">
<rect x="0.5" width="120" height="120" rx="60" fill="#EFF4ED"/>
<path d="M60.6081 65.2419C60.6363 65.0968 60.6564 64.9503 60.6685 64.8032C60.6685 61.3442 60.6685 57.8852 60.6685 54.4261C60.6685 54.1103 60.7349 53.9582 61.1092 53.9874C61.6043 54.0225 62.1053 53.9874 62.6004 53.9874C62.7998 53.988 62.9971 54.0277 63.1803 54.1041C63.3635 54.1804 63.5289 54.2919 63.6665 54.4318C63.8041 54.5717 63.9111 54.7371 63.981 54.9181C64.051 55.099 64.0824 55.2919 64.0734 55.4849C64.0734 60.4336 64.0734 65.3803 64.0734 70.3251C64.0768 70.3679 64.0768 70.411 64.0734 70.4538C63.1867 70.7353 62.228 70.7193 61.3518 70.4083C60.4756 70.0974 59.733 69.5097 59.2437 68.7399C57.3118 65.7293 55.3759 62.7208 53.4359 59.7141C53.3444 59.611 53.2388 59.5205 53.122 59.445C53.0698 59.573 53.0334 59.7065 53.0134 59.8428C53.0134 63.3759 53.0134 66.909 53.0134 70.4421C53.0134 70.4421 53.0133 70.4421 52.9832 70.4889C52.2471 70.5269 51.5096 70.5269 50.7735 70.4889C50.4639 70.4319 50.1844 70.2723 49.9828 70.0376C49.7812 69.8028 49.6702 69.5074 49.6688 69.202C49.6688 68.6931 49.6688 68.1783 49.6688 67.6694C49.6688 63.9258 49.6688 60.1821 49.6688 56.4384C49.6688 55.5083 49.6688 54.6192 48.6968 54.0401C49.9042 54.0401 51.0452 53.9757 52.1802 54.0401C53.1884 54.1103 53.8465 54.8298 54.3476 55.6019C56.3217 58.6202 58.2597 61.662 60.2157 64.6979C60.2821 64.8675 60.3847 65.0021 60.6081 65.2419Z" fill="#212529"/>
<path d="M105 62.2294C105.017 63.3864 104.795 64.5352 104.347 65.6076C103.898 66.68 103.232 67.6542 102.387 68.4724C101.543 69.2906 100.537 69.9363 99.4304 70.3711C98.3236 70.8059 97.138 71.021 95.9438 71.0037C94.7649 71.0045 93.5976 70.7787 92.5094 70.3393C91.4213 69.8999 90.4339 69.2557 89.6045 68.4439C88.7752 67.6322 88.1203 66.6691 87.6778 65.6103C87.2354 64.5516 87.0141 63.4184 87.0269 62.2762C87.0228 61.1335 87.2532 60.0015 87.7047 58.9459C88.1561 57.8902 88.8196 56.9321 89.6566 56.1271C90.4936 55.3221 91.4874 54.6863 92.5802 54.2568C93.673 53.8272 94.843 53.6124 96.0223 53.6248C97.1951 53.6178 98.3578 53.835 99.4439 54.2638C100.53 54.6926 101.518 55.3247 102.352 56.1239C103.186 56.923 103.849 57.8736 104.303 58.9213C104.757 59.9689 104.994 61.0931 105 62.2294ZM96.0042 67.7338C96.7467 67.7361 97.4825 67.5966 98.1694 67.3232C98.8563 67.0498 99.4808 66.6479 100.007 66.1405C100.534 65.6331 100.952 65.0301 101.238 64.3661C101.524 63.702 101.671 62.9898 101.673 62.2703C101.665 60.8098 101.062 59.4116 99.994 58.3805C98.9264 57.3494 97.4814 56.769 95.974 56.766C94.4837 56.7856 93.0599 57.3671 92.0049 58.3872C90.9499 59.4072 90.3466 60.7855 90.3232 62.2294C90.3216 62.9527 90.4675 63.6691 90.7524 64.3377C91.0373 65.0062 91.4557 65.6136 91.9836 66.125C92.5114 66.6365 93.1383 67.0418 93.8283 67.3179C94.5182 67.594 95.2577 67.7353 96.0042 67.7338Z" fill="#212529"/>
<path d="M20.7085 64.5632V64.9961C20.7085 66.6808 20.7085 68.3596 20.7085 70.0442C20.7085 70.4303 20.624 70.5882 20.1953 70.5648C19.658 70.5297 19.1087 70.5648 18.5653 70.5648C18.1884 70.5644 17.8254 70.4263 17.549 70.178C17.2726 69.9297 17.103 69.5895 17.0741 69.2253C17.0741 69.0908 17.0741 68.9562 17.0741 68.8217C17.0741 64.727 17.0741 60.5856 17.0741 56.4675C17.0741 55.5141 17.0379 54.6191 15.9995 54.0224C17.1647 54.0224 18.2152 53.9873 19.2596 54.0224C19.6674 54.0582 20.045 54.2458 20.313 54.5458C20.581 54.8458 20.7184 55.2349 20.6964 55.631C20.6964 56.9355 20.6964 58.2458 20.6964 59.5561C20.6964 59.7081 20.6964 59.8661 20.7447 60.141C20.8815 60.0513 21.0126 59.9537 21.1371 59.8485C23.0409 57.9689 24.9446 56.0932 26.8483 54.2213C26.9456 54.1089 27.0799 54.0325 27.2286 54.0049C28.6534 54.0049 30.0782 54.0049 31.6116 54.0049C31.4486 54.1804 31.3581 54.2915 31.2554 54.391C28.6313 56.9062 26.0031 59.4196 23.3709 61.931C23.0388 62.241 23.069 62.4048 23.3709 62.7148C26.0514 65.3471 28.7077 67.9794 31.3641 70.6467L31.515 70.5063C31.515 70.5063 31.4849 70.5765 31.4667 70.5765C30.3499 70.5765 29.233 70.6116 28.1221 70.5473C27.183 70.432 26.3219 69.9815 25.7073 69.2838C24.204 67.8331 22.6887 66.3591 21.2277 64.8908C21.1009 64.7621 20.9621 64.651 20.8353 64.534L20.7085 64.5632Z" fill="#212529"/>
<path d="M78.5385 70.5358C77.7416 70.5358 76.9628 70.5767 76.1961 70.5358C75.8291 70.489 75.494 70.309 75.2587 70.0321C75.0233 69.7552 74.9052 69.4021 74.9283 69.0441C74.9283 68.4592 74.9283 67.8099 74.9283 67.1957V57.9067C74.9283 57.1989 74.9283 57.1989 74.2159 57.1989C73.3043 57.1989 72.4047 57.1989 71.469 57.1989C71.2505 57.2256 71.0286 57.2056 70.8189 57.1404C70.6092 57.0752 70.4167 56.9663 70.2551 56.8214C70.0934 56.6765 69.9665 56.499 69.8831 56.3015C69.7997 56.104 69.762 55.8912 69.7725 55.678C69.7581 55.3423 69.6579 55.0153 69.4809 54.7264C69.3039 54.4374 69.0556 54.1956 68.7583 54.0226H82.0401C82.2743 53.9944 82.5121 54.0188 82.735 54.0939C82.958 54.169 83.1601 54.2927 83.3258 54.4555C83.4916 54.6183 83.6164 54.8159 83.6908 55.033C83.7651 55.25 83.787 55.4807 83.7546 55.7072V55.9763C83.7546 56.3741 83.8452 56.9005 83.6339 57.1462C83.4226 57.3919 82.8792 57.2164 82.4748 57.2164H79.1664C78.617 57.2164 78.5627 57.2691 78.5627 57.8014V70.4246C78.557 70.4621 78.549 70.4992 78.5385 70.5358Z" fill="#212529"/>
<path d="M41.5249 70.5123C40.7003 70.5534 39.8742 70.5534 39.0496 70.5123C38.7017 70.4419 38.3929 70.2495 38.1823 69.9721C37.9718 69.6947 37.8743 69.3517 37.9086 69.009C37.9086 67.3828 37.9086 65.7625 37.9086 64.1422C37.9086 62.2177 37.9086 60.2932 37.9086 58.3687C37.9086 58.0353 37.9931 57.9066 38.3493 57.9242C38.8444 57.9242 39.3394 57.9242 39.8405 57.9242C40.0708 57.9008 40.3036 57.9278 40.5216 58.0033C40.7397 58.0788 40.9374 58.2008 41.1003 58.3603C41.2631 58.5197 41.3869 58.7126 41.4625 58.9247C41.5381 59.1368 41.5635 59.3626 41.5369 59.5854V70.524L41.5249 70.5123Z" fill="#212529"/>
<path d="M40.462 53.3791C40.5358 53.3176 40.6008 53.2468 40.6552 53.1685C40.8214 52.8275 40.8764 52.4455 40.8128 52.0734C40.7491 51.7013 40.5699 51.3569 40.299 51.0861C39.9988 50.8307 39.6182 50.6812 39.2192 50.6621C38.8202 50.643 38.4262 50.7553 38.1015 50.9808C37.5352 51.4029 36.9446 51.7935 36.3326 52.1507C35.8464 52.4433 35.283 52.593 34.7108 52.5815C34.1386 52.5701 33.5821 52.3981 33.1087 52.0864C33.0056 52.0207 32.9086 51.9463 32.8189 51.8641C32.7589 51.8028 32.7025 51.7384 32.6499 51.671C33.058 51.846 33.4799 51.9888 33.9117 52.098C34.3449 52.1588 34.787 52.1093 35.1945 51.9544C35.602 51.7996 35.9609 51.5447 36.236 51.2148L37.4978 49.8986C38.9346 48.3895 41.7238 48.8223 42.8225 50.817C43.1553 51.358 43.3249 51.9786 43.3121 52.6082C43.2993 53.2379 43.1046 53.8515 42.7501 54.3794C42.3892 54.9312 41.8746 55.3728 41.2657 55.6533C40.6568 55.9338 39.9784 56.0418 39.3089 55.9646C37.7815 55.8651 36.9725 54.9351 37.1234 53.5253C37.1681 53.2628 37.2738 53.0136 37.4326 52.7965C37.5913 52.5794 37.7989 52.4001 38.0397 52.2722C38.2805 52.1443 38.5481 52.0711 38.8224 52.0581C39.0967 52.0452 39.3704 52.0928 39.6228 52.1975C39.8422 52.3084 40.0248 52.4771 40.1497 52.684C40.2747 52.8909 40.3369 53.1278 40.3292 53.3674L40.462 53.3791Z" fill="#212529"/>
</svg>
