<svg width="40" height="40" viewBox="0 0 40 40" fill="none" xmlns="http://www.w3.org/2000/svg">
<path d="M28.5115 5.00001H22.6224C21.9501 4.99973 21.2885 5.16804 20.6981 5.48955C20.1077 5.81106 19.6073 6.27549 19.2428 6.84036L16.0879 11.7209H10.1367C9.57002 11.7209 9.02654 11.946 8.62583 12.3467C8.22512 12.7474 8 13.2909 8 13.8576V31.9073C8 32.474 8.22512 33.0175 8.62583 33.4182C9.02654 33.8189 9.57002 34.044 10.1367 34.044H29.7925C30.3592 34.044 30.9027 33.8189 31.3034 33.4182C31.7041 33.0175 31.9293 32.474 31.9293 31.9073V8.40824C31.9293 7.95986 31.8408 7.51589 31.6689 7.10176C31.497 6.68763 31.2451 6.31148 30.9276 5.99487C30.6101 5.67826 30.2333 5.42742 29.8187 5.2567C29.4041 5.08598 28.9599 4.99876 28.5115 5.00001ZM29.4388 11.7209H19.4293L21.6138 8.37477C21.7827 8.11389 22.0142 7.89939 22.2872 7.75078C22.5602 7.60218 22.866 7.52419 23.1769 7.52391H28.1291C28.4769 7.52518 28.81 7.66423 29.0555 7.91062C29.301 8.15701 29.4388 8.49064 29.4388 8.83844V11.7209Z" stroke="#212529" stroke-width="1.5" stroke-miterlimit="10" stroke-linecap="round"/>
<path d="M11.5325 8.04016H14.6922C15.0636 8.04016 15.4199 8.18772 15.6825 8.45038C15.9452 8.71304 16.0927 9.06928 16.0927 9.44073V11.1186C16.0927 11.2783 16.0293 11.4315 15.9163 11.5444C15.8034 11.6574 15.6502 11.7208 15.4904 11.7208H10.1367V9.43595C10.138 9.06615 10.2854 8.71186 10.5469 8.45037C10.8084 8.18888 11.1627 8.04142 11.5325 8.04016Z" stroke="#212529" stroke-width="1.5" stroke-miterlimit="10" stroke-linecap="round"/>
<path d="M22.737 18.0592H17.1825C15.6118 18.0592 14.3384 19.3326 14.3384 20.9034V24.651C14.3384 26.2218 15.6118 27.4952 17.1825 27.4952H22.737C24.3078 27.4952 25.5812 26.2218 25.5812 24.651V20.9034C25.5812 19.3326 24.3078 18.0592 22.737 18.0592Z" stroke="#212529" stroke-width="1.5" stroke-miterlimit="10" stroke-linecap="round"/>
<path d="M14.864 18.4991L12.5361 16.1711" stroke="#212529" stroke-width="1.5" stroke-miterlimit="10" stroke-linecap="round"/>
<path d="M25.0508 18.4991L27.3787 16.1711" stroke="#212529" stroke-width="1.5" stroke-miterlimit="10" stroke-linecap="round"/>
<path d="M25.0508 27.0508L27.3787 29.3787" stroke="#212529" stroke-width="1.5" stroke-miterlimit="10" stroke-linecap="round"/>
<path d="M14.864 27.0508L12.5361 29.3787" stroke="#212529" stroke-width="1.5" stroke-miterlimit="10" stroke-linecap="round"/>
</svg>
