<svg width="40" height="40" viewBox="0 0 40 40" fill="none" xmlns="http://www.w3.org/2000/svg">
<path d="M33.6426 20.7701L34.5953 23.2679C34.7652 23.7147 34.777 24.2061 34.6288 24.6605C34.4806 25.1149 34.1814 25.5049 33.7808 25.7657L31.5446 27.2466C31.1157 27.5275 30.8048 27.9561 30.6709 28.4511L29.9946 31.0082C29.87 31.4701 29.5909 31.8754 29.2037 32.1565C28.8166 32.4377 28.3448 32.5777 27.867 32.5533L25.2014 32.42C24.688 32.3941 24.1832 32.5594 23.7846 32.884L21.6817 34.5377C21.3085 34.8369 20.8445 35 20.3662 35C19.8878 35 19.4238 34.8369 19.0506 34.5377L16.9724 32.8642C16.5738 32.5397 16.069 32.3744 15.5557 32.4002L12.89 32.5335C12.4122 32.5579 11.9404 32.4179 11.5533 32.1368C11.1662 31.8556 10.887 31.4503 10.7624 30.9884L10.0614 28.4116C9.92757 27.9166 9.61666 27.488 9.18771 27.2071L6.95152 25.7262C6.55096 25.4654 6.25172 25.0754 6.10354 24.621C5.95536 24.1666 5.96717 23.6752 6.13701 23.2284L7.08974 20.7306C7.26976 20.2534 7.26976 19.7269 7.08974 19.2497L6.13701 16.7815C5.96684 16.334 5.95483 15.8417 6.10299 15.3865C6.25115 14.9312 6.55057 14.5403 6.95152 14.2787L9.18771 12.7978C9.61796 12.516 9.92908 12.0854 10.0614 11.5884L10.7624 9.01159C10.887 8.54966 11.1662 8.14438 11.5533 7.86324C11.9404 7.5821 12.4122 7.44208 12.89 7.46649L15.5557 7.59977C16.0681 7.62469 16.572 7.46142 16.9724 7.14069L19.0506 5.46232C19.4238 5.16308 19.8878 5 20.3662 5C20.8445 5 21.3085 5.16308 21.6817 5.46232L23.7599 7.14069C24.1604 7.46142 24.6642 7.62469 25.1767 7.59977L27.8423 7.46649C28.3202 7.44208 28.7919 7.5821 29.179 7.86324C29.5662 8.14438 29.8453 8.54966 29.9699 9.01159L30.6709 11.5884C30.8033 12.0854 31.1144 12.516 31.5446 12.7978L33.7808 14.2787C34.1818 14.5403 34.4812 14.9312 34.6293 15.3865C34.7775 15.8417 34.7655 16.334 34.5953 16.7815L33.6426 19.2497C33.4525 19.7386 33.4525 20.2811 33.6426 20.7701Z" stroke="#212529" stroke-width="1.5" stroke-miterlimit="10" stroke-linecap="round"/>
<path d="M24.6932 26.8517C26.0754 26.8517 27.1959 25.7312 27.1959 24.3489C27.1959 22.9667 26.0754 21.8462 24.6932 21.8462C23.3109 21.8462 22.1904 22.9667 22.1904 24.3489C22.1904 25.7312 23.3109 26.8517 24.6932 26.8517Z" stroke="#212529" stroke-width="1.5" stroke-miterlimit="10" stroke-linecap="round"/>
<path d="M16.0394 18.1983C17.4216 18.1983 18.5421 17.0777 18.5421 15.6955C18.5421 14.3133 17.4216 13.1927 16.0394 13.1927C14.6571 13.1927 13.5366 14.3133 13.5366 15.6955C13.5366 17.0777 14.6571 18.1983 16.0394 18.1983Z" stroke="#212529" stroke-width="1.5" stroke-miterlimit="10" stroke-linecap="round"/>
<path d="M26.5442 13.8492L14.1934 26.1952" stroke="#212529" stroke-width="1.5" stroke-miterlimit="10" stroke-linecap="round"/>
</svg>
