<svg width="40" height="40" viewBox="0 0 40 40" fill="none" xmlns="http://www.w3.org/2000/svg">
<path d="M28.8207 7.5823C27.2407 6.05662 23.8832 5 20.0122 5C16.1413 5 12.7838 6.05662 11.2038 7.5823C10.9132 7.82677 10.6758 8.12808 10.5059 8.46772C10.3361 8.80736 10.2376 9.17815 10.2163 9.55728C10.2163 12.0704 14.5958 14.1145 19.9925 14.1145C25.3891 14.1145 29.7637 12.0704 29.7637 9.55728C29.7486 9.18134 29.6572 8.8124 29.4951 8.47289C29.333 8.13337 29.1035 7.83036 28.8207 7.5823ZM20.0122 11.71C17.4645 11.71 15.4006 10.7472 15.4006 9.56221C15.4006 8.67346 16.5511 7.9131 18.1952 7.58722C18.7936 7.46923 19.4023 7.41134 20.0122 7.41441C20.6221 7.4116 21.2308 7.46949 21.8292 7.58722C23.4734 7.91803 24.6238 8.6784 24.6238 9.56221C24.6238 10.7472 22.56 11.71 20.0122 11.71Z" stroke="#212529" stroke-width="1.5" stroke-miterlimit="10" stroke-linecap="round"/>
<path d="M20.012 14.1195C14.6154 14.1195 10.2358 12.0754 10.2358 9.56226V30.4428C10.2358 32.9609 14.6154 35 20.012 35C25.4086 35 29.7832 32.9609 29.7832 30.4428V9.56226C29.7832 12.0754 25.4086 14.1195 20.012 14.1195Z" stroke="#212529" stroke-width="1.5" stroke-miterlimit="10" stroke-linecap="round"/>
<path d="M21.8392 7.58223C21.2408 7.4645 20.6321 7.40661 20.0222 7.40942C19.4123 7.40635 18.8036 7.46424 18.2052 7.58223C16.5611 7.91304 15.4106 8.67341 15.4106 9.55722C15.4106 10.7422 17.4745 11.705 20.0222 11.705C22.57 11.705 24.6338 10.7422 24.6338 9.55722C24.6239 8.67341 23.4735 7.91304 21.8392 7.58223Z" stroke="#212529" stroke-width="1.5" stroke-miterlimit="10" stroke-linecap="round"/>
<path d="M20.0122 30.2551V14.1145" stroke="#212529" stroke-width="1.5" stroke-miterlimit="10" stroke-linecap="round"/>
<path d="M17.1533 29.7218V14.1145" stroke="#212529" stroke-width="1.5" stroke-miterlimit="10" stroke-linecap="round"/>
<path d="M14.7095 29.3121V13.5863" stroke="#212529" stroke-width="1.5" stroke-miterlimit="10" stroke-linecap="round"/>
<path d="M12.2651 28.2308V12.5198" stroke="#212529" stroke-width="1.5" stroke-miterlimit="10" stroke-linecap="round"/>
<path d="M22.876 29.7218V14.1145" stroke="#212529" stroke-width="1.5" stroke-miterlimit="10" stroke-linecap="round"/>
<path d="M25.3198 29.3121V13.5863" stroke="#212529" stroke-width="1.5" stroke-miterlimit="10" stroke-linecap="round"/>
<path d="M27.7642 28.2308V12.5198" stroke="#212529" stroke-width="1.5" stroke-miterlimit="10" stroke-linecap="round"/>
<path d="M10.2358 25.6979C10.2358 28.216 14.6154 30.2551 20.012 30.2551C25.4086 30.2551 29.7832 28.216 29.7832 25.6979" stroke="#212529" stroke-width="1.5" stroke-miterlimit="10" stroke-linecap="round"/>
</svg>
