<svg width="121" height="120" viewBox="0 0 121 120" fill="none" xmlns="http://www.w3.org/2000/svg">
<rect x="0.5" width="120" height="120" rx="60" fill="#EFF4ED"/>
<path d="M79.7441 32.3232L74.324 37.7333C73.8251 38.2337 73.545 38.9116 73.545 39.6183C73.545 40.3249 73.8251 41.0027 74.324 41.5032L76.954 44.1332L79.584 46.7632C80.0845 47.2621 80.7624 47.5422 81.4691 47.5422C82.1757 47.5422 82.8536 47.2621 83.3541 46.7632L88.764 41.3433C88.764 41.3433 90.9741 49.2232 83.4341 55.4132C79.3541 58.7732 73.9341 55.2233 73.9341 55.2233L70.2841 58.8733L66.2841 54.8733L62.2841 50.8733L65.9341 47.2233C65.9341 47.2233 62.3841 41.8033 65.7441 37.7233C71.8641 30.1133 79.7441 32.3232 79.7441 32.3232Z" fill="white" stroke="#212529" stroke-width="2" stroke-miterlimit="10"/>
<path d="M36.0636 84.0362L35.8727 83.8453C35.3555 83.3281 34.9451 82.7141 34.6652 82.0383C34.3853 81.3625 34.2413 80.6382 34.2413 79.9067C34.2413 79.1752 34.3853 78.4509 34.6652 77.7751C34.9452 77.0994 35.3554 76.4854 35.8726 75.9682L41.2679 70.573L49.336 78.6411L43.9407 84.0363C43.4235 84.5535 42.8095 84.9637 42.1337 85.2436C41.4579 85.5235 40.7337 85.6676 40.0022 85.6676C39.2707 85.6676 38.5464 85.5236 37.8706 85.2437C37.1948 84.9638 36.5808 84.5534 36.0636 84.0362V84.0362Z" fill="white" stroke="#212529" stroke-width="2" stroke-miterlimit="10"/>
<path d="M58.934 43.1131L64.424 48.5931L62.214 50.8031L70.564 59.163L71.864 60.4631L74.604 63.2031C75.0217 63.6228 75.2562 64.1909 75.2562 64.783C75.2562 65.3752 75.0217 65.9434 74.604 66.3631L72.674 68.293C72.2543 68.7107 71.6862 68.9453 71.094 68.9453C70.5018 68.9453 69.9337 68.7107 69.514 68.293L68.354 67.0631C68.7717 67.4828 69.0062 68.0509 69.0062 68.643C69.0062 69.2352 68.7717 69.8033 68.354 70.2231L66.424 72.153C66.2175 72.3623 65.9715 72.5284 65.7003 72.6418C65.429 72.7552 65.138 72.8136 64.844 72.8136C64.55 72.8136 64.259 72.7552 63.9877 72.6418C63.7165 72.5284 63.4705 72.3623 63.264 72.153L62.264 71.153C62.4732 71.3595 62.6394 71.6056 62.7527 71.8768C62.8661 72.148 62.9245 72.4391 62.9245 72.7331C62.9245 73.0271 62.8661 73.3181 62.7527 73.5893C62.6394 73.8605 62.4732 74.1066 62.264 74.3131L60.334 76.2431C59.9142 76.6608 59.3462 76.8952 58.754 76.8952C58.1619 76.8952 57.5938 76.6608 57.174 76.2431L56.644 75.7131C56.9405 76.1412 57.0778 76.6595 57.0321 77.1782C56.9864 77.6969 56.7607 78.1833 56.394 78.5531L54.464 80.4831C54.0949 80.8539 53.6072 81.083 53.0862 81.1306C52.5652 81.1781 52.0441 81.041 51.614 80.7431L49.724 78.903L36.444 65.633C34.9448 64.1329 34.1027 62.0989 34.1027 59.9781C34.1027 57.8573 34.9448 55.8232 36.444 54.3231L47.704 43.0631C49.2073 41.5949 51.2279 40.7771 53.3292 40.7865C55.4305 40.7958 57.4438 41.6316 58.934 43.1131V43.1131Z" fill="white" stroke="#212529" stroke-width="2" stroke-miterlimit="10"/>
<path d="M56.564 75.7531L54.464 73.6531" stroke="#212529" stroke-width="2" stroke-miterlimit="10"/>
<path d="M62.2141 71.1633L60.1641 69.1133" stroke="#212529" stroke-width="2" stroke-miterlimit="10"/>
<path d="M68.314 67.0831L65.874 64.6431" stroke="#212529" stroke-width="2" stroke-miterlimit="10"/>
<path d="M40.294 81.6632C41.4317 81.6632 42.354 80.7409 42.354 79.6032C42.354 78.4655 41.4317 77.5432 40.294 77.5432C39.1563 77.5432 38.234 78.4655 38.234 79.6032C38.234 80.7409 39.1563 81.6632 40.294 81.6632Z" fill="white" stroke="#212529" stroke-width="2" stroke-miterlimit="10"/>
</svg>
