<svg width="121" height="120" viewBox="0 0 121 120" fill="none" xmlns="http://www.w3.org/2000/svg">
<rect x="0.5" width="120" height="120" rx="60" fill="#EFF4ED"/>
<path d="M81.045 53.4436L67.0624 39.4609L65.3512 41.1721L79.3338 55.1548L81.045 53.4436Z" fill="white" stroke="#212529" stroke-width="1.5" stroke-miterlimit="10"/>
<path d="M86.8767 47.612L72.894 33.6294L71.1828 35.3406L85.1655 49.3232L86.8767 47.612Z" fill="white" stroke="#212529" stroke-width="1.5" stroke-miterlimit="10"/>
<path d="M87.4354 54.0024L66.4976 33.0646C66.0852 32.6522 65.4079 32.6608 64.9848 33.0839L64.8057 33.263C64.3826 33.6861 64.374 34.3634 64.7864 34.7758L85.7242 55.7136C86.1366 56.126 86.8139 56.1174 87.2369 55.6943L87.4161 55.5151C87.8391 55.0921 87.8478 54.4148 87.4354 54.0024Z" fill="white" stroke="#212529" stroke-width="1.5" stroke-miterlimit="10"/>
<path d="M76.6582 29.7086L90.7914 43.8418C91.352 44.4024 91.6611 45.1685 91.6509 45.9715C91.6406 46.7745 91.3118 47.5487 90.7367 48.1238L90.4834 48.3771L72.1229 30.0166L72.3762 29.7633C72.9513 29.1882 73.7255 28.8594 74.5285 28.8491C75.3316 28.8389 76.0976 29.1481 76.6582 29.7086V29.7086Z" fill="white" stroke="#212529" stroke-width="1.5" stroke-miterlimit="10"/>
<path d="M61.8435 39.3325L47.0172 54.1588C47.5175 54.6333 48.1791 54.9034 48.8769 54.9181C49.5746 54.9327 50.26 54.691 50.8035 54.2385L53.3856 52.1503C53.85 51.7509 54.4414 51.5338 55.046 51.5407C55.6506 51.5476 56.2255 51.778 56.6601 52.1877L68.1979 63.7255C68.6083 64.1605 68.8398 64.736 68.8478 65.3414C68.8558 65.9468 68.6399 66.5396 68.2414 67.0061L66.1531 69.5881C65.6997 70.1296 65.4568 70.8138 65.4704 71.5107C65.484 72.2075 65.7531 72.8685 66.2268 73.3684L66.299 73.4406L81.1253 58.6143L61.8435 39.3325Z" fill="white" stroke="#212529" stroke-width="1.5" stroke-miterlimit="10"/>
<path d="M49.951 80.4068C50.5906 78.8438 50.7131 77.1287 50.3 75.5173L64.039 61.7783L58.7218 56.4611L45.0507 70.1321C43.3896 69.6661 41.6059 69.7747 39.9849 70.4408L36.9378 67.3937L32.7247 71.6068L35.7356 74.6177C35.0922 76.0549 34.8918 77.6415 35.1605 79.1708C35.4293 80.7002 36.1547 82.1013 37.2422 83.1916C38.3323 84.2815 39.7342 85.0087 41.2648 85.2786C42.7954 85.5484 44.3837 85.3483 45.8222 84.7043L48.7307 87.6128L52.9438 83.3997L49.951 80.4068ZM40.3374 80.0844C39.6985 79.4456 39.3462 78.5726 39.3579 77.6574C39.3696 76.7423 39.7443 75.86 40.3997 75.2047C41.0551 74.5493 41.9374 74.1745 42.8525 74.1628C43.7677 74.1511 44.6406 74.5035 45.2795 75.1423C45.9183 75.7812 46.2707 76.6541 46.259 77.5693C46.2473 78.4844 45.8725 79.3668 45.2171 80.0221C44.5618 80.6775 43.6795 81.0522 42.7644 81.0639C41.8493 81.0756 40.9762 80.7233 40.3374 80.0844Z" fill="white" stroke="#212529" stroke-width="1.5" stroke-miterlimit="10"/>
</svg>
