<svg width="257" height="53" viewBox="0 0 257 53" fill="none" xmlns="http://www.w3.org/2000/svg">
<path d="M253.6 43.7998H252.7L250.3 49.9998H251.2L251.9 48.0998H254.5L255.2 49.9998H256.1L253.6 43.7998ZM252.1 47.3998L252.8 45.5998C252.9 45.1998 253.1 44.7998 253.1 44.3998C253.2 44.6998 253.3 45.1998 253.5 45.6998L254.1 47.3998H252.1Z" fill="#231F20"/>
<path d="M236.9 49.9002V43.7002H238.1L239.6 48.1002C239.7 48.5002 239.8 48.8002 239.9 49.0002C240 48.8002 240.1 48.4002 240.2 48.0002L241.7 43.7002H242.8V49.9002H242V44.8002L240.2 49.9002H239.5L237.7 44.7002V49.9002H236.9Z" fill="#231F20"/>
<path d="M228.5 43.7998H227.7V49.9998H228.5V43.7998Z" fill="#231F20"/>
<path d="M214.4 49.8998V43.7998H215.3L218.5 48.5998V43.7998H219.3V49.8998H218.4L215.2 45.0998V49.8998H214.4Z" fill="#231F20"/>
<path d="M202.9 43.4002L203.4 42.2002H204.4L203.5 43.4002H202.9Z" fill="#231F20"/>
<path d="M206.1 45.2002C205.9 44.7002 205.5 44.3002 205.1 44.1002C204.6 43.8002 204.1 43.7002 203.6 43.7002C202.7 43.7002 202 44.0002 201.5 44.6002C200.9 45.2002 200.7 46.0002 200.7 47.0002C200.7 47.5002 200.8 48.1002 201.1 48.5002C201.3 49.0002 201.7 49.4002 202.1 49.6002C202.6 49.9002 203.1 50.0002 203.7 50.0002C204.2 50.0002 204.7 49.9002 205.2 49.6002C205.7 49.3002 206 49.0002 206.3 48.5002C206.6 48.0002 206.7 47.4002 206.7 46.8002C206.5 46.2002 206.3 45.7002 206.1 45.2002ZM205 48.7002C204.6 49.1002 204.1 49.3002 203.5 49.3002C202.9 49.3002 202.4 49.1002 202 48.7002C201.6 48.3002 201.4 47.7002 201.4 47.0002C201.4 46.1002 201.6 45.4002 202 45.0002C202.4 44.6002 202.9 44.4002 203.5 44.4002C203.9 44.4002 204.3 44.5002 204.6 44.7002C204.9 44.9002 205.2 45.2002 205.3 45.6002C205.5 46.0002 205.6 46.4002 205.6 46.9002C205.6 47.7002 205.4 48.3002 205 48.7002Z" fill="#231F20"/>
<path d="M187.7 49.8998V43.7998H188.5L191.7 48.5998V43.7998H192.5V49.8998H191.7L188.5 45.0998V49.8998H187.7Z" fill="#231F20"/>
<path d="M177.6 43.7998H176.7L174.3 49.9998H175.2L175.9 48.0998H178.5L179.2 49.9998H180.1L177.6 43.7998ZM176.1 47.3998L176.8 45.5998C176.9 45.1998 177.1 44.7998 177.1 44.3998C177.2 44.6998 177.3 45.1998 177.5 45.6998L178.1 47.3998H176.1Z" fill="#231F20"/>
<path d="M157.8 45.3998C157.6 44.9998 157.4 44.5998 157.1 44.2998C156.9 44.0998 156.6 43.8998 156.2 43.8998C155.9 43.7998 155.6 43.7998 155.1 43.7998H153V49.9998H155.2C155.6 49.9998 155.9 49.9998 156.2 49.8998C156.5 49.7998 156.7 49.6998 156.9 49.5998C157.1 49.4998 157.3 49.2998 157.5 48.9998C157.7 48.7998 157.8 48.4998 157.9 48.0998C158 47.6998 158.1 47.2998 158.1 46.8998C158.1 46.2998 158 45.7998 157.8 45.3998ZM157.1 47.9998C157 48.2998 156.8 48.5998 156.7 48.7998C156.6 48.8998 156.4 48.9998 156.1 49.0998C155.9 49.1998 155.5 49.1998 155.1 49.1998H153.8V44.4998H155.1C155.6 44.4998 155.9 44.4998 156.2 44.5998C156.5 44.6998 156.8 44.8998 157 45.2998C157.2 45.5998 157.3 46.0998 157.3 46.7998C157.2 47.2998 157.2 47.6998 157.1 47.9998Z" fill="#231F20"/>
<path d="M142.9 43.7998H142L139.6 49.9998H140.5L141.2 48.0998H143.8L144.5 49.9998H145.4L142.9 43.7998ZM141.4 47.3998L142.1 45.5998C142.2 45.1998 142.4 44.7998 142.4 44.3998C142.5 44.6998 142.6 45.1998 142.8 45.6998L143.4 47.3998H141.4Z" fill="#231F20"/>
<path d="M132 45.3998C131.8 44.9998 131.6 44.5998 131.3 44.2998C131.1 44.0998 130.8 43.8998 130.4 43.8998C130.1 43.7998 129.8 43.7998 129.3 43.7998H127.2V49.9998H129.4C129.8 49.9998 130.1 49.9998 130.4 49.8998C130.7 49.7998 130.9 49.6998 131.1 49.5998C131.3 49.4998 131.5 49.2998 131.7 48.9998C131.9 48.7998 132 48.4998 132.1 48.0998C132.2 47.6998 132.3 47.2998 132.3 46.8998C132.3 46.2998 132.2 45.7998 132 45.3998ZM131.3 47.9998C131.2 48.2998 131 48.5998 130.8 48.7998C130.7 48.8998 130.5 48.9998 130.2 49.0998C130 49.1998 129.7 49.1998 129.2 49.1998H127.9V44.4998H129.2C129.7 44.4998 130 44.4998 130.3 44.5998C130.6 44.6998 130.9 44.8998 131.1 45.2998C131.3 45.5998 131.4 46.0998 131.4 46.7998C131.4 47.2998 131.4 47.6998 131.3 47.9998Z" fill="#231F20"/>
<path d="M114.5 49.8998V43.7998H119V44.4998H115.4V46.3998H118.7V47.0998H115.4V49.1998H119.1V49.8998H114.5Z" fill="#231F20"/>
<path d="M106.1 43.7998H105.3V49.9998H106.1V43.7998Z" fill="#231F20"/>
<path d="M96.4 47.8L97.2 48C97 48.7 96.7 49.2 96.3 49.5C95.9 49.9 95.3 50 94.7 50C94 50 93.5 49.9 93.1 49.6C92.7 49.3 92.4 48.9 92.2 48.4C92 47.9 91.9 47.3 91.9 46.7C91.9 46.1 92 45.5 92.3 45C92.5 44.5 92.9 44.2 93.3 43.9C93.7 43.7 94.2 43.5 94.8 43.5C95.4 43.5 95.9 43.7 96.4 44C96.8 44.3 97.1 44.8 97.3 45.3L96.5 45.5C96.4 45.1 96.2 44.7 95.9 44.5C95.6 44.3 95.3 44.2 94.9 44.2C94.4 44.2 94 44.3 93.7 44.5C93.4 44.7 93.2 45 93 45.4C92.9 45.8 92.8 46.2 92.8 46.6C92.8 47.1 92.9 47.6 93 48C93.2 48.4 93.4 48.7 93.7 48.9C94 49.1 94.4 49.2 94.7 49.2C95.2 49.2 95.5 49.1 95.9 48.8C96.1 48.7 96.3 48.3 96.4 47.8Z" fill="#231F20"/>
<path d="M83.7001 45.2002C83.5001 44.7002 83.1001 44.3002 82.7001 44.1002C82.2001 43.8002 81.7001 43.7002 81.2001 43.7002C80.3001 43.7002 79.6001 44.0002 79.1001 44.6002C78.5001 45.2002 78.3 46.0002 78.3 47.0002C78.3 47.5002 78.4001 48.1002 78.7001 48.5002C78.9001 49.0002 79.3001 49.4002 79.7001 49.6002C80.2001 49.9002 80.7 50.0002 81.3 50.0002C81.8 50.0002 82.3 49.9002 82.8 49.6002C83.3 49.3002 83.6001 49.0002 83.9001 48.5002C84.2001 48.0002 84.3 47.4002 84.3 46.8002C84.1 46.2002 84.0001 45.7002 83.7001 45.2002ZM82.6001 48.7002C82.2001 49.1002 81.7001 49.3002 81.1001 49.3002C80.5001 49.3002 80.0001 49.1002 79.6001 48.7002C79.2001 48.3002 79.0001 47.7002 79.0001 47.0002C79.0001 46.1002 79.2001 45.4002 79.6001 45.0002C80.0001 44.6002 80.5001 44.4002 81.1001 44.4002C81.5001 44.4002 81.9001 44.5002 82.2001 44.7002C82.5001 44.9002 82.8001 45.2002 82.9001 45.6002C83.1001 46.0002 83.2001 46.4002 83.2001 46.9002C83.2001 47.7002 83.0001 48.3002 82.6001 48.7002Z" fill="#231F20"/>
<path d="M65.5 48.0002L66.3 47.9002C66.3 48.2002 66.4 48.5002 66.6 48.7002C66.7 48.9002 66.9 49.1002 67.2 49.2002C67.5 49.3002 67.8 49.4002 68.1 49.4002C68.4 49.4002 68.7 49.4002 68.9 49.3002C69.1 49.2002 69.3 49.1002 69.4 48.9002C69.5 48.7002 69.6 48.6002 69.6 48.4002C69.6 48.2002 69.5 48.0002 69.4 47.9002C69.3 47.8002 69.1 47.6002 68.8 47.5002C68.6 47.4002 68.3 47.3002 67.7 47.2002C67.1 47.1002 66.7 46.9002 66.5 46.8002C66.2 46.6002 66 46.5002 65.8 46.2002C65.7 46.0002 65.6 45.7002 65.6 45.4002C65.6 45.1002 65.7 44.8002 65.9 44.5002C66.1 44.2002 66.3 44.0002 66.7 43.9002C67 43.8002 67.4 43.7002 67.8 43.7002C68.3 43.7002 68.7 43.8002 69 43.9002C69.3 44.0002 69.6 44.3002 69.8 44.6002C70 44.9002 70.1 45.2002 70.1 45.6002L69.3 45.7002C69.3 45.3002 69.1 45.0002 68.9 44.8002C68.7 44.6002 68.3 44.5002 67.8 44.5002C67.3 44.5002 67 44.6002 66.7 44.8002C66.5 45.0002 66.4 45.2002 66.4 45.5002C66.4 45.7002 66.5 45.9002 66.6 46.0002C66.8 46.1002 67.2 46.3002 67.8 46.4002C68.5 46.5002 68.9 46.7002 69.2 46.8002C69.6 47.0002 69.8 47.2002 70 47.4002C70.2 47.7002 70.3 47.9002 70.3 48.3002C70.3 48.6002 70.2 48.9002 70 49.2002C69.8 49.5002 69.5 49.7002 69.2 49.9002C69 50.0002 68.6 50.0002 68.1 50.0002C67.5 50.0002 67.1 49.9002 66.7 49.8002C66.3 49.6002 66 49.4002 65.8 49.1002C65.6 48.7002 65.5 48.4002 65.5 48.0002Z" fill="#231F20"/>
<path d="M255.7 15.5H250.3V37.5H255.7V15.5Z" fill="#231F20"/>
<path d="M245.5 37.5998H239.8V27.7998H231.4V37.5998H225.6V15.2998H231.4V23.4998H239.8V15.2998H245.5V37.5998Z" fill="#231F20"/>
<path d="M222.3 30.5998C222.3 32.7998 221.4 34.5998 219.5 35.8998C217.6 37.2998 215.1 37.9998 211.9 37.9998C210.1 37.9998 208.5 37.7998 207.1 37.4998C205.7 37.1998 204.5 36.7998 203.3 36.2998V30.9998H203.9C205.1 31.8998 206.4 32.6998 207.9 33.1998C209.4 33.6998 210.8 33.9998 212.1 33.9998C212.4 33.9998 212.9 33.9998 213.5 33.8998C214.1 33.7998 214.5 33.6998 214.9 33.5998C215.3 33.3998 215.7 33.1998 216 32.8998C216.3 32.5998 216.4 32.1998 216.4 31.6998C216.4 31.1998 216.2 30.7998 215.8 30.3998C215.4 29.9998 214.8 29.7998 214 29.5998C213.2 29.3998 212.3 29.1998 211.4 28.9998C210.5 28.7998 209.6 28.5998 208.8 28.2998C206.9 27.6998 205.6 26.8998 204.8 25.7998C204 24.7998 203.6 23.4998 203.6 21.8998C203.6 19.7998 204.5 18.0998 206.4 16.7998C208.3 15.4998 210.6 14.7998 213.5 14.7998C215 14.7998 216.4 14.8998 217.8 15.1998C219.2 15.4998 220.5 15.7998 221.5 16.2998V21.3998H220.9C220 20.6998 218.9 20.0998 217.6 19.5998C216.3 19.0998 215 18.8998 213.6 18.8998C213.1 18.8998 212.7 18.8998 212.2 18.9998C211.7 19.0998 211.3 19.1998 210.8 19.3998C210.4 19.4998 210.1 19.7998 209.8 20.0998C209.5 20.3998 209.4 20.6998 209.4 21.0998C209.4 21.6998 209.6 22.0998 210.1 22.3998C210.5 22.6998 211.4 22.9998 212.6 23.2998L215 23.7998C215.8 23.9998 216.6 24.1998 217.4 24.4998C219.1 25.0998 220.4 25.7998 221.2 26.7998C221.9 27.7998 222.3 28.9998 222.3 30.5998Z" fill="#231F20"/>
<path d="M197.7 17.9999C195.7 15.8999 192.9 14.8999 189.3 14.8999C185.7 14.8999 182.9 15.8999 180.9 17.9999C178.9 20.0999 177.9 22.8999 177.9 26.4999C177.9 29.9999 178.9 32.7999 180.9 34.8999C182.9 36.9999 185.7 37.9999 189.3 37.9999C192.9 37.9999 195.7 36.9999 197.7 34.8999C199.7 32.7999 200.7 29.9999 200.7 26.4999C200.8 22.8999 199.8 20.0999 197.7 17.9999ZM194.4 29.6999C194.1 30.5999 193.7 31.3999 193.2 32.0999C192.7 32.6999 192.1 33.0999 191.5 33.3999C190.8 33.6999 190.1 33.7999 189.4 33.7999C188.7 33.7999 188 33.6999 187.3 33.3999C186.6 33.0999 186.1 32.6999 185.6 32.0999C185.1 31.4999 184.7 30.7999 184.4 29.7999C184.1 28.8999 183.9 27.6999 183.9 26.3999C183.9 25.0999 184.1 23.9999 184.4 22.9999C184.7 21.9999 185.1 21.2999 185.6 20.6999C186.1 20.0999 186.7 19.6999 187.4 19.3999C188 19.0999 188.7 18.9999 189.5 18.9999C190.2 18.9999 190.9 19.0999 191.6 19.3999C192.3 19.6999 192.8 20.0999 193.4 20.6999C193.9 21.2999 194.3 21.9999 194.6 22.9999C194.9 23.8999 195.1 25.0999 195.1 26.3999C194.8 27.6999 194.7 28.7999 194.4 29.6999Z" fill="#231F20"/>
<path d="M176.4 19.5998H169.4V37.5998H163.7V19.5998H156.8V15.2998H176.4V19.5998Z" fill="#231F20"/>
<path d="M152.2 17.9999C150.2 15.8999 147.4 14.8999 143.8 14.8999C140.2 14.8999 137.4 15.8999 135.4 17.9999C133.4 20.0999 132.4 22.8999 132.4 26.4999C132.4 29.9999 133.4 32.7999 135.4 34.8999C137.4 36.9999 140.2 37.9999 143.8 37.9999C147.4 37.9999 150.2 36.9999 152.2 34.8999C154.2 32.7999 155.2 29.9999 155.2 26.4999C155.3 22.8999 154.2 20.0999 152.2 17.9999ZM148.9 29.6999C148.6 30.5999 148.2 31.3999 147.7 32.0999C147.2 32.6999 146.6 33.0999 146 33.3999C145.3 33.6999 144.6 33.7999 143.9 33.7999C143.2 33.7999 142.5 33.6999 141.8 33.3999C141.1 33.0999 140.6 32.6999 140.1 32.0999C139.6 31.4999 139.2 30.7999 138.9 29.7999C138.6 28.8999 138.4 27.6999 138.4 26.3999C138.4 25.0999 138.6 23.9999 138.9 22.9999C139.2 21.9999 139.6 21.2999 140.1 20.6999C140.6 20.0999 141.2 19.6999 141.9 19.3999C142.5 19.0999 143.2 18.9999 144 18.9999C144.7 18.9999 145.4 19.0999 146.1 19.3999C146.8 19.6999 147.3 20.0999 147.9 20.6999C148.4 21.2999 148.8 21.9999 149.1 22.9999C149.4 23.8999 149.6 25.0999 149.6 26.3999C149.3 27.6999 149.2 28.7999 148.9 29.6999Z" fill="#231F20"/>
<path d="M131.3 15.2998L123.1 28.9998V37.5998H117.4V29.1998L109.1 15.2998H115.6L120.4 23.8998L125 15.2998H131.3Z" fill="#231F20"/>
<path d="M105 17.9999C103 15.8999 100.2 14.8999 96.6 14.8999C93 14.8999 90.2 15.8999 88.2 17.9999C86.2 20.0999 85.2 22.8999 85.2 26.4999C85.2 29.9999 86.2 32.7999 88.2 34.8999C90.2 36.9999 93 37.9999 96.6 37.9999C100.2 37.9999 103 36.9999 105 34.8999C107 32.7999 108 29.9999 108 26.4999C108 22.8999 107 20.0999 105 17.9999ZM101.7 29.6999C101.4 30.5999 101 31.3999 100.5 32.0999C100 32.6999 99.4 33.0999 98.7999 33.3999C98.0999 33.6999 97.4 33.7999 96.7 33.7999C96 33.7999 95.3 33.6999 94.6 33.3999C93.9 33.0999 93.3 32.6999 92.9 32.0999C92.4 31.4999 92 30.7999 91.7 29.7999C91.4 28.8999 91.2 27.6999 91.2 26.3999C91.2 25.0999 91.4 23.9999 91.7 22.9999C92 21.9999 92.4 21.2999 92.9 20.6999C93.4 20.0999 94 19.6999 94.7 19.3999C95.3 19.0999 95.9999 18.9999 96.7999 18.9999C97.4999 18.9999 98.2 19.0999 98.9 19.3999C99.6 19.6999 100.1 20.0999 100.7 20.6999C101.2 21.2999 101.6 21.9999 101.9 22.9999C102.2 23.8999 102.4 25.0999 102.4 26.3999C102.1 27.6999 101.9 28.7999 101.7 29.6999Z" fill="#231F20"/>
<path d="M83.6 19.5998H76.7V37.5998H70.9V19.5998H64V15.2998H83.6V19.5998Z" fill="#231F20"/>
<path d="M26.5 0C31.7 0 35 0.6 40.5 3.9C37.7 4.5 37 8.6 34.7 8.6C34 8.6 21.6 7.8 20.9 7.8C14.7 7.8 13 6.4 5.9 16C6.1 16.2 6.3 16.4 7 16.4L27.1 14.3H31.3C26 20.7 19.4 29.7 19.4 36.8C19.4 45.6 26.9 48 33.3 48C38.3 48 43.7 45.9 48.5 41C42.1 50.2 34.5 52.8 26.7 52.8C10.7 52.8 0 39.8 0 26.4C0.1 11.5 12.3 0 26.5 0Z" fill="#EA2346"/>
<path d="M41.8 4.8999C42.9 4.8999 46.9 8.9999 47.3 9.9999C44.2 9.4999 41.5 9.1999 39 8.8999C39.2 7.8999 41.3 4.8999 41.8 4.8999Z" fill="#EA2346"/>
<path d="M42.6999 14.0002C43.4 14.0002 47.6999 14.0002 50.1999 14.4002C52.4999 18.3002 53.1999 22.7002 53.1999 26.5002C53.2999 37.8002 48.7999 41.0002 38.1 41.0002C32.5 41.0002 25.7 39.0002 25.7 32.0002C25.7 26.6002 28.9 19.1002 34.4 14.4002C36.5 12.7002 42.0999 14.0002 42.6999 14.0002Z" fill="#EA2346"/>
<path d="M48.7 6.7998C47 6.7998 45.7 5.3998 45.7 3.7998C45.7 2.0998 47.1 0.799805 48.7 0.799805C50.3 0.799805 51.7 2.1998 51.7 3.7998C51.7 5.3998 50.4 6.7998 48.7 6.7998ZM48.7 1.1998C47.3 1.1998 46.2 2.2998 46.2 3.6998C46.2 5.0998 47.3 6.1998 48.7 6.1998C50.1 6.1998 51.2 5.0998 51.2 3.6998C51.2 2.2998 50.1 1.1998 48.7 1.1998Z" fill="#EA2346"/>
<path d="M47.5 2.2002H48.9C49.1 2.2002 49.3 2.2002 49.4 2.3002C49.5 2.4002 49.7 2.4002 49.8 2.5002C49.9 2.6002 49.9 2.7002 50 2.8002C50 2.9002 50.1 3.0002 50.1 3.2002C50.1 3.3002 50.1 3.4002 50 3.5002C50 3.6002 49.9 3.7002 49.8 3.8002C49.7 3.9002 49.7 3.9002 49.6 4.0002C49.5 4.1002 49.4 4.1002 49.3 4.1002L50.1 5.3002H49.5L48.7 4.2002H48V5.3002H47.5V2.2002ZM48.8 3.7002C49 3.7002 49.1 3.7002 49.3 3.6002C49.4 3.5002 49.5 3.4002 49.5 3.2002C49.5 3.0002 49.4 2.9002 49.3 2.8002C49.2 2.7002 49 2.7002 48.8 2.7002H48V3.7002H48.8Z" fill="#EA2346"/>
</svg>
