<svg width="30" height="30" viewBox="0 0 30 30" fill="none" xmlns="http://www.w3.org/2000/svg">
<g clip-path="url(#clip0_77_1119)">
<path d="M29.8418 12.9554C29.7177 12.0585 29.5137 11.1744 29.2323 10.3137C28.916 9.33493 28.494 8.3935 27.9737 7.50597C27.0198 5.8615 25.766 4.41013 24.2771 3.22701C22.712 1.98399 20.9104 1.07177 18.9817 0.545745C18.0965 0.329563 17.1972 0.176301 16.2904 0.0870401C14.5916 -0.111447 12.8703 0.0256164 11.2244 0.490422C10.0567 0.791102 8.92978 1.23189 7.86819 1.8033C4.48839 3.65529 1.94115 6.72368 0.744176 10.3849C0.500892 11.1605 0.318283 11.9538 0.198 12.7577C0.0702926 13.6613 0.0173332 14.5741 0.039679 15.4864C0.0603439 16.1276 0.121182 16.7668 0.22177 17.4004C0.359655 18.2666 0.574216 19.119 0.862929 19.9473C1.16912 20.8134 1.55329 21.6498 2.0107 22.4466C2.03212 22.4938 2.04316 22.5451 2.04316 22.5969C2.04316 22.6487 2.03212 22.6999 2.0107 22.7471C1.87613 23.1821 1.75736 23.6172 1.63072 24.0522C1.3695 24.9934 1.10829 25.9426 0.839159 26.8838C0.57003 27.825 0.277148 28.8768 -0.0078125 29.8734C-0.0078125 30.0158 -0.00779318 30.0237 0.11094 30L1.74947 29.5808L4.50407 28.8611L7.37742 28.1255C7.45366 28.0926 7.53581 28.0757 7.61884 28.0757C7.70187 28.0757 7.78402 28.0926 7.86026 28.1255C8.72202 28.593 9.62908 28.972 10.5674 29.2566C11.6587 29.6039 12.7885 29.8164 13.9315 29.8893C15.8931 30.0239 17.8619 29.7713 19.7257 29.1458C20.6437 28.8412 21.5294 28.4465 22.3695 27.9673C24.061 27.004 25.55 25.7228 26.7547 24.1946C28.3131 22.2414 29.3434 19.9211 29.7468 17.4558C29.8814 16.6649 29.9289 15.7948 29.9843 14.9327C29.9368 14.3079 29.9289 13.6356 29.8418 12.9554ZM27.293 16.9101C27.1447 17.8671 26.8789 18.8022 26.5015 19.6941C25.7608 21.4932 24.6054 23.0921 23.1294 24.3607C20.6644 26.4855 17.466 27.5641 14.2165 27.3662C13.4302 27.321 12.6505 27.1964 11.8893 26.9944C10.5955 26.6602 9.36168 26.1265 8.23232 25.4126C8.17917 25.3745 8.11768 25.3496 8.05298 25.34C7.98828 25.3303 7.92222 25.3363 7.86026 25.3572C6.55419 25.7052 5.24813 26.0375 3.90248 26.3696C3.82332 26.3696 3.71254 26.4487 3.6413 26.3696C3.57006 26.2906 3.6413 26.1877 3.6413 26.1007L4.35367 23.5856C4.47241 23.1585 4.58323 22.7234 4.70988 22.2963C4.72676 22.2443 4.73052 22.189 4.72085 22.1352C4.71118 22.0814 4.68839 22.0308 4.65447 21.9879C4.12038 21.1826 3.67203 20.3237 3.31674 19.4253C3.02685 18.6563 2.80954 17.8619 2.66765 17.0525C2.52014 16.1562 2.46707 15.2469 2.50933 14.3395C2.54959 13.4763 2.68227 12.6198 2.90511 11.7848C3.15279 10.8129 3.52529 9.87713 4.01331 9.00075C5.16936 6.87149 6.92527 5.12799 9.06344 3.98627C10.0447 3.4575 11.0941 3.06629 12.1822 2.82363C13.0855 2.62952 14.0051 2.52091 14.9289 2.49932C16.0656 2.51793 17.1955 2.67731 18.293 2.97386C19.936 3.43124 21.4667 4.22295 22.7891 5.29925C23.9824 6.26145 24.9839 7.43933 25.7415 8.77144C26.3081 9.7633 26.7369 10.8277 27.0159 11.9352C27.2522 12.8987 27.3796 13.8855 27.3959 14.8774C27.4134 15.5653 27.3711 16.2533 27.2692 16.9338L27.293 16.9101Z" fill="white"/>
<path d="M10.1161 7.96462H10.6702C10.8001 7.97001 10.9256 8.01335 11.0311 8.08927C11.1366 8.16518 11.2175 8.27036 11.2639 8.39175C11.7151 9.43578 12.1583 10.4719 12.6016 11.5555C12.6512 11.6762 12.6641 11.8088 12.6388 11.9367C12.6135 12.0647 12.5509 12.1824 12.4591 12.2752C12.1029 12.6706 11.7546 13.0661 11.4142 13.4774C11.3183 13.5575 11.2578 13.6722 11.2459 13.7966C11.2341 13.921 11.2718 14.045 11.3509 14.1417C12.3063 15.8366 13.7408 17.2123 15.4749 18.0964C15.8407 18.2818 16.2159 18.4481 16.599 18.5947C16.9156 18.7291 17.0343 18.6896 17.248 18.4207L18.3483 16.9971C18.6253 16.6412 18.8074 16.5937 19.2111 16.7835L22.2586 18.1913C22.3278 18.2118 22.3922 18.2462 22.4477 18.2925C22.5032 18.3387 22.5487 18.3958 22.5813 18.4603C22.6139 18.5247 22.633 18.5952 22.6374 18.6673C22.6418 18.7394 22.6314 18.8116 22.6068 18.8795C22.5284 19.4545 22.3432 20.0097 22.0607 20.5167C21.7034 21.0786 21.1848 21.5196 20.5725 21.7822C19.8782 22.1129 19.0976 22.2181 18.3403 22.0827C16.7935 21.7826 15.3167 21.1951 13.9868 20.3506C11.7966 19.0015 9.94668 17.1666 8.58048 14.9881C8.16019 14.3393 7.84247 13.6297 7.63852 12.8842C7.36138 11.993 7.36138 11.0388 7.63852 10.1476C7.86039 9.51261 8.23559 8.94212 8.73087 8.48666C8.89617 8.30437 9.09162 8.15181 9.3087 8.03578C9.57063 7.95983 9.8449 7.93567 10.1161 7.96462Z" fill="white"/>
</g>
<defs>
<clipPath id="clip0_77_1119">
<rect width="30" height="30" fill="white"/>
</clipPath>
</defs>
</svg>
